<?xml version="1.0" encoding="utf-8"?>
<!-- Generator: Adobe Illustrator 24.3.0, SVG Export Plug-In . SVG Version: 6.00 Build 0)  -->
<svg version="1.1" id="Layer_1" xmlns="http://www.w3.org/2000/svg" xmlns:xlink="http://www.w3.org/1999/xlink" x="0px" y="0px"
	 viewBox="0 0 595.3 595.3" style="enable-background:new 0 0 595.3 595.3;" xml:space="preserve">
<style type="text/css">
	.st0{fill:#8FADF9;stroke:#7BA8EF;stroke-width:9.796;stroke-miterlimit:10;}
</style>
<g>
	<path class="st0" d="M511.7,212.4C473,84.7,401.6,46.9,253.1,59.5C137.2,69.4,89.3,231.7,89.3,231.7
		C-6.4,527.9,299.2,546.1,384.8,536.1C498.4,522.7,550.3,340.1,511.7,212.4z M324,405.3c-45.8,5.4-209.2-4.4-158-162.8
		c0,0,25.6-86.8,87.6-92.1c79.4-6.8,117.6,13.5,138.3,81.8S384.8,398.2,324,405.3z"/>
	<path class="st0" d="M370.8,375.8c0,0,88.4,4.1,120.6,74"/>
	<path class="st0" d="M112.4,176.4c0,0,41-2,67.1,34.4"/>
	<path class="st0" d="M207.2,384.5c0,0-61,49.9-56.5,103.2"/>
	<path class="st0" d="M368.4,183.8c0,0,21.4-72.6,86.2-76.7"/>
</g>
</svg>
