<?xml version="1.0" encoding="utf-8"?>
<!-- Generator: Adobe Illustrator 24.3.0, SVG Export Plug-In . SVG Version: 6.00 Build 0)  -->
<svg version="1.1" id="Layer_1" xmlns="http://www.w3.org/2000/svg" xmlns:xlink="http://www.w3.org/1999/xlink" x="0px" y="0px"
	 viewBox="0 0 595.3 595.3" style="enable-background:new 0 0 595.3 595.3;" xml:space="preserve">
<style type="text/css">
	.st0{fill:#8FADF9;stroke:#7BA8EF;stroke-width:9.796;stroke-miterlimit:10;}
	.st1{fill:#FFFFFF;stroke:#7BA8EF;stroke-width:9.796;stroke-miterlimit:10;}
	.st2{fill:#7BA8EF;}
	.st3{fill:#8FADF9;stroke:#7BA8EF;stroke-width:9.796;stroke-linecap:round;stroke-linejoin:round;stroke-miterlimit:10;}
</style>
<path class="st0" d="M511.7,212.4C473,84.7,401.6,46.9,253.1,59.5C137.2,69.4,89.3,231.7,89.3,231.7
	C-6.4,527.9,299.2,546.1,384.8,536.1C498.4,522.7,550.3,340.1,511.7,212.4z M324,405.3c-45.8,5.4-209.2-4.4-158-162.8
	c0,0,25.6-86.8,87.6-92.1c79.4-6.8,117.6,13.5,138.3,81.8S384.8,398.2,324,405.3z"/>
<path class="st0" d="M357.2,389.5c0,0,88.4,13.7,120.6,83.6"/>
<path class="st0" d="M112.4,176.4c0,0,41-2,67.1,34.4"/>
<path class="st0" d="M207.2,384.5c0,0-61,49.9-56.5,103.2"/>
<circle class="st1" cx="219.1" cy="164.5" r="39.6"/>
<path class="st0" d="M388.3,221.4c0,0,72.9-58.4,120.8-17.3"/>
<circle class="st2" cx="229.5" cy="176.4" r="22.3"/>
<circle class="st1" cx="377.9" cy="204.1" r="39.6"/>
<circle class="st2" cx="388.3" cy="216" r="22.3"/>
<path class="st3" d="M180.2,117.5c0,0,35-37.9,64.8-12.7"/>
<path class="st3" d="M384.8,133.7c0,0,40.6-12,50,35.2"/>
<path class="st0" d="M316.4,323c5.3-2.1,7.6-8.5,6.3-14c-3.4-15.2-18.9-64.1-71.8-31.9C196.9,309.9,283,336.3,316.4,323z"/>
<path class="st1" d="M194,237.3L194,237.3l-3.9-26c-1-6.7-13.9-9.5-17.5-3.8L158.8,228c-1.6,2.2-2.9,4.7-3.5,7.5
	c-2.2,10.5,4.5,20.8,15.1,23.1c10.6,2.3,21-4.4,23.3-14.9C194.2,241.6,194.3,239.4,194,237.3z"/>
<path class="st1" d="M428.8,277.2L428.8,277.2L414.6,255c-3.6-5.8-16.5-3.1-17.5,3.7l-4.3,24.2c-0.6,2.6-0.7,5.5-0.1,8.3
	c2.2,10.5,12.6,17.2,23.2,15c10.6-2.2,17.4-12.5,15.2-23C430.7,281,429.8,279,428.8,277.2z"/>
<path class="st1" d="M396.7,345.2L396.7,345.2l-7.7-25.1c-1.9-6.5-15.1-7.4-17.9-1.2l-10.6,22.2c-1.3,2.4-2.1,5.1-2.3,8
	c-0.7,10.7,7.5,19.9,18.3,20.6c10.8,0.7,20.2-7.4,20.9-18.1C397.5,349.4,397.3,347.3,396.7,345.2z"/>
<path class="st1" d="M211.8,304.7L211.8,304.7l-8-25c-2-6.5-15.2-7.2-17.9-0.9L175.6,301c-1.3,2.4-2.1,5.1-2.2,8
	c-0.6,10.7,7.8,19.8,18.6,20.4c10.8,0.6,20.1-7.6,20.6-18.3C212.7,308.8,212.4,306.7,211.8,304.7z"/>
</svg>
