<?xml version="1.0" encoding="utf-8"?>
<!-- Generator: Adobe Illustrator 24.3.0, SVG Export Plug-In . SVG Version: 6.00 Build 0)  -->
<svg version="1.1" id="Layer_1" xmlns="http://www.w3.org/2000/svg" xmlns:xlink="http://www.w3.org/1999/xlink" x="0px" y="0px"
	 viewBox="0 0 595.3 595.3" style="enable-background:new 0 0 595.3 595.3;" xml:space="preserve">
<style type="text/css">
	.st0{fill:#8FADF9;stroke:#7BA8EF;stroke-width:9.796;stroke-miterlimit:10;}
	.st1{fill:#FFFFFF;stroke:#7BA8EF;stroke-width:9.796;stroke-miterlimit:10;}
	.st2{fill:#7BA8EF;}
	.st3{fill:#8FADF9;stroke:#7BA8EF;stroke-width:9.796;stroke-linecap:round;stroke-linejoin:round;stroke-miterlimit:10;}
	.st4{fill:#FFFFFF;stroke:#7BA8EF;stroke-width:8.0441;stroke-miterlimit:10;}
</style>
<path class="st0" d="M511.7,212.4C473,84.7,401.6,46.9,253.1,59.5C137.2,69.4,89.3,231.7,89.3,231.7
	C-6.4,527.9,299.2,546.1,384.8,536.1C498.4,522.7,550.3,340.1,511.7,212.4z M324,405.3c-45.8,5.4-209.2-4.4-158-162.8
	c0,0,25.6-86.8,87.6-92.1c79.4-6.8,117.6,13.5,138.3,81.8S384.8,398.2,324,405.3z"/>
<path class="st0" d="M357.2,389.5c0,0,88.4,13.7,120.6,83.6"/>
<path class="st0" d="M112.4,176.4c0,0,41-2,67.1,34.4"/>
<path class="st0" d="M207.2,384.5c0,0-61,49.9-56.5,103.2"/>
<circle class="st1" cx="219.1" cy="164.5" r="39.6"/>
<path class="st0" d="M388.3,221.4c0,0,72.9-58.4,120.8-17.3"/>
<circle class="st2" cx="229.5" cy="176.4" r="22.3"/>
<circle class="st1" cx="377.9" cy="204.1" r="39.6"/>
<circle class="st2" cx="388.3" cy="216" r="22.3"/>
<path class="st3" d="M180.2,117.5c0,0,35-37.9,64.8-12.7"/>
<path class="st3" d="M384.8,133.7c0,0,40.6-12,50,35.2"/>
<path class="st0" d="M316.4,323c5.3-2.1,7.6-8.5,6.3-14c-3.4-15.2-18.9-64.1-71.8-31.9C196.9,309.9,283,336.3,316.4,323z"/>
<path class="st4" d="M496.6,204.1L496.6,204.1l-16.4-34.4c-4.2-9-23.3-7.3-25.9,2.2L443.7,206c-1.4,3.7-2,7.7-1.6,11.9
	c1.3,15.5,15.1,27,30.8,25.7s27.3-15,26-30.5C498.6,209.9,497.8,206.8,496.6,204.1z"/>
</svg>
