<?xml version="1.0" encoding="UTF-8"?>
<!-- Generator: Adobe Illustrator 24.3.0, SVG Export Plug-In . SVG Version: 6.00 Build 0)  -->
<svg version="1.1" id="Layer_1" xmlns="http://www.w3.org/2000/svg" xmlns:xlink="http://www.w3.org/1999/xlink" x="0px" y="0px" viewBox="0 0 595.3 595.3" style="enable-background:new 0 0 595.3 595.3;" xml:space="preserve">
<style type="text/css">
	.st0{fill:#EF2034;stroke:#E21E32;stroke-width:10.4523;stroke-miterlimit:10;}
	.st1{fill:#FFFDFD;stroke:#E21E32;stroke-width:10.4523;stroke-miterlimit:10;}
	.st2{fill:#E21E32;}
	.st3{fill:#EF2034;stroke:#E21E32;stroke-width:10.4523;stroke-linecap:round;stroke-linejoin:round;stroke-miterlimit:10;}
	.st4{fill:#7BA8EF;}
	.st5{fill:#8FADF9;stroke:#7BA8EF;stroke-width:14.2436;stroke-miterlimit:10;}
	.st6{fill:#FFFFFF;stroke:#E21E32;stroke-width:10.4523;stroke-linecap:round;stroke-linejoin:round;stroke-miterlimit:10;}
	.st7{fill:#FFFFFF;}
	.st8{fill:none;stroke:#FCD37A;stroke-width:10.4523;stroke-linecap:round;stroke-linejoin:round;stroke-miterlimit:10;}
</style>
<path class="st0" d="M516.1,481.5c-3.3-31.2-60-110.2-127.9-191.4c62.2-55.5,110.2-101.6,115.6-108.4c28-34.9,41.6-86.9-35.1-92.4  c-28.2-2-96.5,41.8-170.3,99.5C231.8,117.6,171.1,62.3,152.9,62.5c-25.8,0.3-42,18.8-51.1,34.6c-7.7,13.4-8.3,29.9-1.3,43.8  c16.9,33.8,53.4,82.2,96,133.2C112.1,349,41.8,422.7,41.5,442.9c-0.3,25.8,17.8,42.4,33.4,51.9c13.3,8.1,29.7,8.9,43.7,2.3  c41.4-19.6,104.9-67.3,168.5-119.9c68,74.2,129.4,135.5,137.4,141.6C460.1,545.8,524.2,557.1,516.1,481.5z"/>
<path class="st0" d="M196.5,274c0,0,36.3-63.8,102-85.2"/>
<path class="st0" d="M300.8,191c0,0,65.3,33.7,87.4,99.2"/>
<path class="st0" d="M390.5,290.8c0,0-37.3,66-103.4,86.3"/>
<path class="st0" d="M468.7,393.7c0,0-21.8,63-87.9,83"/>
<path class="st0" d="M287.2,377.1c0,0-71.6-34.7-91.4-100.9"/>
<path class="st0" d="M181.9,456.3c0,0-67-21.2-86.4-87.5"/>
<circle class="st1" cx="201.5" cy="183" r="41.7"/>
<circle class="st2" cx="194.2" cy="195.3" r="24.5"/>
<circle class="st1" cx="388.2" cy="191" r="41.7"/>
<circle class="st2" cx="381" cy="203.3" r="24.5"/>
<path class="st3" d="M341.9,268.1c0,0,0,21,20,24.5"/>
<path class="st4" d="M117.2,240.6l60.4-30.6c9.5-6.5,21.7-7.2,31.9-1.9c5.7,3,11.6,7.3,16.3,13.2c8.6,10.8,8.4,26.2,0.1,37.2  L186.7,323L117.2,240.6z"/>
<circle class="st5" cx="139.2" cy="292.3" r="49.3"/>
<path class="st6" d="M346.9,283.5c0,0-12.2,14.3-42.4,9.1"/>
<path class="st7" d="M149.8,279.6c-2-8.9,10.3-13.9,15.2-6.2c2.9,4.6,5.3,11,4.7,19.5C168.7,306.4,152.8,292.7,149.8,279.6z"/>
<path class="st8" d="M273.2,350.6"/>
<path class="st8" d="M405.5,290.2"/>
<path class="st4" d="M217.2,290.7l42.5-53.8c5.9-9.9,16.7-15.7,28.1-15.1c6.4,0.3,13.6,1.7,20.4,5.1c12.3,6.2,18.6,20.3,15.7,33.8  l-10,81.8L217.2,290.7z"/>
<circle class="st5" cx="259.4" cy="327.7" r="49.3"/>
<path class="st7" d="M271.1,313.2c-2-8.9,10.3-13.9,15.2-6.2c2.9,4.6,5.3,11,4.7,19.5C290.1,340,274.1,326.3,271.1,313.2z"/>
<polygon class="st4" points="209.2,245 269.1,251 252.8,279.7 189.3,271.4 "/>
<line class="st3" x1="405" y1="134.8" x2="454.8" y2="119.1"/>
<line class="st3" x1="207.3" y1="122.2" x2="156.5" y2="105.4"/>
<path class="st0" d="M276.8,293.6"/>
</svg>