<?xml version="1.0" encoding="utf-8"?>
<!-- Generator: Adobe Illustrator 24.3.0, SVG Export Plug-In . SVG Version: 6.00 Build 0)  -->
<svg version="1.1" id="Layer_1" xmlns="http://www.w3.org/2000/svg" xmlns:xlink="http://www.w3.org/1999/xlink" x="0px" y="0px"
	 viewBox="0 0 595.3 595.3" style="enable-background:new 0 0 595.3 595.3;" xml:space="preserve">
<style type="text/css">
	.st0{fill:#EF2034;stroke:#E21E32;stroke-width:10.4523;stroke-miterlimit:10;}
</style>
<path class="st0" d="M516.1,481.5c-3.3-31.2-60-110.2-127.9-191.4c62.2-55.5,110.2-101.6,115.6-108.4c28-34.9,41.6-86.9-35.1-92.4
	c-28.2-2-96.5,41.8-170.3,99.5C231.8,117.6,171.1,62.3,152.9,62.5c-25.8,0.3-42,18.8-51.1,34.6c-7.7,13.4-8.3,29.9-1.3,43.8
	c16.9,33.8,53.4,82.2,96,133.2c-84.4,74.9-154.7,148.6-155,168.8c-0.3,25.8,17.8,42.4,33.4,51.9c13.3,8.1,29.7,8.9,43.7,2.3
	c41.4-19.6,104.9-67.3,168.5-119.9c68,74.2,129.4,135.5,137.4,141.6C460.1,545.8,524.2,557.1,516.1,481.5z"/>
<path class="st0" d="M196.5,274c0,0,36.3-63.8,102-85.2"/>
<path class="st0" d="M300.8,191c0,0,65.3,33.7,87.4,99.2"/>
<path class="st0" d="M135.1,193.8c0,0,20.4-63.5,86.1-84.9"/>
<path class="st0" d="M382.1,125.4c0,0,63.6,20.1,85.3,85.6"/>
<path class="st0" d="M390.5,290.8c0,0-37.3,66-103.4,86.3"/>
<path class="st0" d="M468.7,393.7c0,0-21.8,63-87.9,83"/>
<path class="st0" d="M287.2,377.1c0,0-71.6-34.7-91.4-100.9"/>
<path class="st0" d="M181.9,456.3c0,0-68.7-22.9-88.1-89.2"/>
</svg>
