<?xml version="1.0" encoding="utf-8"?>
<!-- Generator: Adobe Illustrator 24.3.0, SVG Export Plug-In . SVG Version: 6.00 Build 0)  -->
<svg version="1.1" id="Layer_1" xmlns="http://www.w3.org/2000/svg" xmlns:xlink="http://www.w3.org/1999/xlink" x="0px" y="0px"
	 viewBox="0 0 595.3 595.3" style="enable-background:new 0 0 595.3 595.3;" xml:space="preserve">
<style type="text/css">
	.st0{fill:#EF2034;stroke:#E21E32;stroke-width:10.4523;stroke-miterlimit:10;}
	.st1{fill:#EF2034;stroke:#E21E32;stroke-width:10.4523;stroke-linecap:round;stroke-linejoin:round;stroke-miterlimit:10;}
	.st2{fill:#FFFDFD;stroke:#E21E32;stroke-width:10.4523;stroke-miterlimit:10;}
	.st3{fill:#E21E32;}
	.st4{fill:#FFFFFF;stroke:#E21E32;stroke-width:10.4523;stroke-linecap:round;stroke-linejoin:round;stroke-miterlimit:10;}
	.st5{fill:#8FADF9;stroke:#7BA8EF;stroke-width:8;stroke-miterlimit:10;}
	.st6{fill:#FCD37A;stroke:#F9C55D;stroke-width:11;stroke-linecap:round;stroke-linejoin:round;stroke-miterlimit:10;}
	.st7{fill:#F9C55D;}
</style>
<path class="st0" d="M516.1,481.5c8.1,75.6-56,64.3-91.6,37.3c-8-6.1-69.4-67.4-137.4-141.6c-14.7,12.2-29.4,24.1-43.9,35.5
	c-13.1,10.3-25.9,20.1-38.4,29.3c-33.1,24.5-63.1,44.2-86.2,55.1c-14,6.6-30.4,5.8-43.7-2.3c-15.6-9.5-33.7-26.1-33.4-51.9
	c0.2-13.1,30-48.9,74-92.8c11-11,22.9-22.5,35.5-34.3c14.5-13.6,29.8-27.6,45.6-41.6c-42.6-51-79.1-99.4-96-133.2
	c-7-13.9-6.4-30.4,1.3-43.8c9.1-15.8,25.3-34.3,51.1-34.6c18.2-0.2,78.9,55.1,145.5,126.3c73.8-57.7,142.1-101.5,170.3-99.5
	c76.7,5.5,63.1,57.5,35.1,92.4c-5.4,6.8-53.4,52.9-115.6,108.4C456.1,371.3,512.8,450.3,516.1,481.5z"/>
<path class="st0" d="M196.5,274c0,0,36.3-63.8,102-85.2"/>
<path class="st0" d="M300.8,191c0,0,65.3,33.7,87.4,99.2"/>
<path class="st1" d="M137.7,137.9c0,0,9.3-51.3,64-22.8"/>
<path class="st0" d="M390.5,290.8c0,0-37.3,66-103.4,86.3"/>
<path class="st0" d="M468.7,393.7c0,0-21.8,63-87.9,83"/>
<path class="st0" d="M287.2,377.1c0,0-71.6-34.7-91.4-100.9"/>
<path class="st0" d="M181.9,456.3c0,0-67-21.2-86.4-87.5"/>
<circle class="st2" cx="201.5" cy="183" r="41.7"/>
<circle class="st2" cx="388.2" cy="191" r="41.7"/>
<circle class="st3" cx="381" cy="203.3" r="24.5"/>
<path class="st4" d="M331.8,326.7c0,0-36.7-33.5-87.3-14.4C304.7,217.6,331.8,326.7,331.8,326.7z"/>
<path class="st1" d="M409.7,127.4c0,0,45-26.5,59,33.7"/>
<path class="st5" d="M380.4,269.3L380.4,269.3l-8.7-24c-2.2-6.2-14.6-6.2-16.8,0l-8.6,22.3c-1.1,2.4-1.7,5.1-1.7,7.9
	c0,10.5,8.3,18.9,18.5,18.9s18.5-8.5,18.5-18.9C381.4,273.3,381,271.2,380.4,269.3z"/>
<circle class="st3" cx="194.2" cy="195.3" r="24.5"/>
<path class="st6" d="M243.2,412.7c-13.1,10.3-25.9,20.1-38.4,29.3c-51.2-22.3-77.1-63.8-89.4-91.9c11-11,22.9-22.5,35.5-34.3
	C171.7,355.6,215.4,392.1,243.2,412.7z"/>
<path class="st7" d="M194,399.1c-2.7,2-5.3,4-7.8,6c-1.4,1-3.2,1.2-4.8,0.4c-16.3-8-25.4-21-30.3-31.1c-0.9-1.8-0.5-3.9,0.9-5.3
	c2.3-2.3,4.7-4.6,7.1-6.9c2.1-2,5.5-1.6,7,0.9c7.3,11.3,18.8,21.6,27.9,28.8C196.4,393.7,196.4,397.3,194,399.1z"/>
</svg>
