<?xml version="1.0" encoding="utf-8"?>
<!-- Generator: Adobe Illustrator 24.3.0, SVG Export Plug-In . SVG Version: 6.00 Build 0)  -->
<svg version="1.1" id="Layer_1" xmlns="http://www.w3.org/2000/svg" xmlns:xlink="http://www.w3.org/1999/xlink" x="0px" y="0px"
	 viewBox="0 0 595.3 595.3" style="enable-background:new 0 0 595.3 595.3;" xml:space="preserve">
<style type="text/css">
	.st0{fill:#EF2034;stroke:#E21E32;stroke-width:10.4523;stroke-miterlimit:10;}
	.st1{fill:#FFFDFD;stroke:#E21E32;stroke-width:10.4523;stroke-miterlimit:10;}
	.st2{fill:#E21E32;}
	.st3{fill:#EF2034;stroke:#E21E32;stroke-width:10.4523;stroke-linecap:round;stroke-linejoin:round;stroke-miterlimit:10;}
</style>
<path class="st0" d="M516.1,481.5c-3.3-31.2-60-110.2-127.9-191.4c62.2-55.5,110.2-101.6,115.6-108.4c28-34.9,41.6-86.9-35.1-92.4
	c-28.2-2-96.5,41.8-170.3,99.5C231.8,117.6,171.1,62.3,152.9,62.5c-25.8,0.3-42,18.8-51.1,34.6c-7.7,13.4-8.3,29.9-1.3,43.8
	c16.9,33.8,53.4,82.2,96,133.2C112.1,349,41.8,422.7,41.5,442.9c-0.3,25.8,17.8,42.4,33.4,51.9c13.3,8.1,29.7,8.9,43.7,2.3
	c41.4-19.6,104.9-67.3,168.5-119.9c68,74.2,129.4,135.5,137.4,141.6C460.1,545.8,524.2,557.1,516.1,481.5z"/>
<path class="st0" d="M196.5,274c0,0,36.3-63.8,102-85.2"/>
<path class="st0" d="M300.8,191c0,0,65.3,33.7,87.4,99.2"/>
<path class="st0" d="M126.7,183.7c0,0,15.1-63.5,80.8-84.9"/>
<path class="st0" d="M395.7,119.7c0,0,61.1,21,82.8,86.5"/>
<path class="st0" d="M390.5,290.8c0,0-37.3,66-103.4,86.3"/>
<path class="st0" d="M468.7,393.7c0,0-21.8,63-87.9,83"/>
<path class="st0" d="M287.2,377.1c0,0-71.6-34.7-91.4-100.9"/>
<path class="st0" d="M181.9,456.3c0,0-67-21.2-86.4-87.5"/>
<circle class="st1" cx="201.5" cy="183" r="41.7"/>
<circle class="st2" cx="194.2" cy="195.3" r="24.5"/>
<circle class="st1" cx="388.2" cy="191" r="41.7"/>
<circle class="st2" cx="381" cy="203.3" r="24.5"/>
<path class="st3" d="M237.2,281.9c0,0,29.4,32.8,76.5,6.1"/>
<path class="st3" d="M307,266.3c0,0,0,21,20,24.5"/>
</svg>
